<svg width="30" height="31" viewBox="0 0 30 31" fill="none" xmlns="http://www.w3.org/2000/svg">
<g clip-path="url(#clip0_1500_1021)">
<path d="M24.75 0.142578H5.25C2.3505 0.142578 0 2.49308 0 5.39258V24.8926C0 27.7921 2.3505 30.1426 5.25 30.1426H24.75C27.6495 30.1426 30 27.7921 30 24.8926V5.39258C30 2.49308 27.6495 0.142578 24.75 0.142578Z" fill="#385997"/>
<path d="M25.498 14.0176H20.8105V10.4551C20.8105 9.5832 21.8137 9.51758 22.123 9.51758H25.3105V4.64258H22.123C18.5934 4.64258 15.9355 7.14102 15.9355 10.4551V14.0176H11.998V18.8926H15.9355V30.1426H20.8105V18.8926H24.748L25.498 14.0176Z" fill="white"/>
</g>
<defs>
<clipPath id="clip0_1500_1021">
<rect width="30" height="30" fill="white" transform="translate(0 0.142578)"/>
</clipPath>
</defs>
</svg>
