<svg width="38" height="56" viewBox="0 0 38 56" fill="none" xmlns="http://www.w3.org/2000/svg">
<g clip-path="url(#clip0_1544_1138)">
<path d="M10.0144 55.5483C15.0928 55.5483 19.2144 51.4213 19.2144 46.3362V37.1241H10.0144C4.93603 37.1241 0.814453 41.2512 0.814453 46.3362C0.814453 51.4213 4.93603 55.5483 10.0144 55.5483Z" fill="#0ACF83"/>
<path d="M0.814453 27.9121C0.814453 22.8271 4.93603 18.7001 10.0144 18.7001H19.2144V37.1242H10.0144C4.93603 37.1242 0.814453 32.9972 0.814453 27.9121Z" fill="#A259FF"/>
<path d="M0.814453 9.48795C0.814453 4.40289 4.93603 0.275879 10.0144 0.275879H19.2144V18.7H10.0144C4.93603 18.7 0.814453 14.573 0.814453 9.48795Z" fill="#F24E1E"/>
<path d="M19.2148 0.275879H28.4148C33.4932 0.275879 37.6148 4.40289 37.6148 9.48795C37.6148 14.573 33.4932 18.7 28.4148 18.7H19.2148V0.275879Z" fill="#FF7262"/>
<path d="M37.6148 27.9121C37.6148 32.9972 33.4932 37.1242 28.4148 37.1242C23.3364 37.1242 19.2148 32.9972 19.2148 27.9121C19.2148 22.8271 23.3364 18.7001 28.4148 18.7001C33.4932 18.7001 37.6148 22.8271 37.6148 27.9121Z" fill="#1ABCFE"/>
</g>
<defs>
<clipPath id="clip0_1544_1138">
<rect width="36.8113" height="55.2724" fill="white" transform="translate(0.808594 0.275879)"/>
</clipPath>
</defs>
</svg>
