<svg width="30" height="35" viewBox="0 0 30 35" fill="none" xmlns="http://www.w3.org/2000/svg">
<path d="M26.7857 2.1416H3.21429C1.43973 2.1416 0 3.58133 0 5.35589V28.9273C0 30.7019 1.43973 32.1416 3.21429 32.1416H26.7857C28.5603 32.1416 30 30.7019 30 28.9273V5.35589C30 3.58133 28.5603 2.1416 26.7857 2.1416ZM18.5692 27.8358C18.0067 27.9362 17.7991 27.588 17.7991 27.3001C17.7991 26.9385 17.8125 25.0903 17.8125 23.597C17.8125 22.5523 17.4643 21.8894 17.0558 21.5412C19.5335 21.2666 22.1451 20.9251 22.1451 16.6461C22.1451 15.4273 21.7098 14.8179 21 14.0345C21.1138 13.7465 21.4955 12.5612 20.8862 11.0211C19.9554 10.7331 17.8259 12.2197 17.8259 12.2197C16.942 11.972 15.9844 11.8447 15.0402 11.8447C14.096 11.8447 13.1384 11.972 12.2545 12.2197C12.2545 12.2197 10.125 10.7331 9.1942 11.0211C8.58482 12.5545 8.95982 13.7398 9.08036 14.0345C8.37054 14.8179 8.03571 15.4273 8.03571 16.6461C8.03571 20.905 10.5335 21.2666 13.0112 21.5412C12.6897 21.8291 12.4018 22.3246 12.3013 23.0345C11.6652 23.3224 10.0379 23.8179 9.06696 22.1037C8.45759 21.0456 7.35937 20.9586 7.35937 20.9586C6.27455 20.9452 7.28571 21.6416 7.28571 21.6416C8.00893 21.9764 8.51786 23.2621 8.51786 23.2621C9.16741 25.251 12.2746 24.5813 12.2746 24.5813C12.2746 25.5121 12.2879 27.0255 12.2879 27.3001C12.2879 27.588 12.0871 27.9362 11.5179 27.8358C7.09821 26.3559 4.00446 22.1505 4.00446 17.2354C4.00446 11.088 8.70536 6.42062 14.8527 6.42062C21 6.42062 25.9821 11.088 25.9821 17.2354C25.9888 22.1505 22.9888 26.3626 18.5692 27.8358ZM12 23.7443C11.8728 23.7711 11.7522 23.7175 11.7388 23.6304C11.7254 23.53 11.8125 23.4429 11.9397 23.4162C12.067 23.4028 12.1875 23.4563 12.2009 23.5434C12.221 23.6304 12.1339 23.7175 12 23.7443ZM11.3638 23.684C11.3638 23.7711 11.2634 23.8447 11.1295 23.8447C10.9821 23.8581 10.8817 23.7845 10.8817 23.684C10.8817 23.597 10.9821 23.5233 11.1161 23.5233C11.2433 23.5099 11.3638 23.5836 11.3638 23.684ZM10.4464 23.6104C10.4196 23.6974 10.2857 23.7376 10.1719 23.6974C10.0446 23.6706 9.95759 23.5702 9.98438 23.4831C10.0112 23.3961 10.1451 23.3559 10.2589 23.3827C10.3929 23.4229 10.4799 23.5233 10.4464 23.6104ZM9.62277 23.2487C9.5625 23.3224 9.43527 23.309 9.33482 23.2086C9.23437 23.1215 9.20759 22.9943 9.27455 22.934C9.33482 22.8604 9.46205 22.8737 9.5625 22.9742C9.64955 23.0612 9.68304 23.1952 9.62277 23.2487ZM9.01339 22.6394C8.95313 22.6795 8.83929 22.6394 8.76562 22.5389C8.69196 22.4385 8.69196 22.3246 8.76562 22.2778C8.83929 22.2175 8.95313 22.2644 9.01339 22.3648C9.08705 22.4653 9.08705 22.5858 9.01339 22.6394V22.6394ZM8.57813 21.9898C8.51786 22.0501 8.41741 22.0166 8.34375 21.9496C8.27009 21.8626 8.2567 21.7621 8.31696 21.7153C8.37723 21.655 8.47768 21.6885 8.55134 21.7554C8.625 21.8425 8.63839 21.9429 8.57813 21.9898ZM8.12946 21.4943C8.10268 21.5545 8.01562 21.5679 7.94196 21.5211C7.85491 21.4809 7.81473 21.4072 7.84152 21.347C7.8683 21.3068 7.94196 21.2867 8.02902 21.3202C8.11607 21.367 8.15625 21.4407 8.12946 21.4943Z" fill="white"/>
</svg>
