<svg width="30" height="31" viewBox="0 0 30 31" fill="none" xmlns="http://www.w3.org/2000/svg">
<g clip-path="url(#clip0_1500_1024)">
<path d="M3.75 0.142578H26.25C28.3125 0.142578 30 1.83008 30 3.89258V26.3926C30 28.4551 28.3125 30.1426 26.25 30.1426H3.75C1.6875 30.1426 0 28.4551 0 26.3926V3.89258C0 1.83008 1.6875 0.142578 3.75 0.142578Z" fill="url(#paint0_linear_1500_1024)"/>
<path d="M19.875 4.83008H10.125C7.125 4.83008 4.6875 7.36133 4.6875 10.3613V19.9238C4.6875 22.9238 7.125 25.4551 10.125 25.4551H19.875C22.875 25.4551 25.3125 22.9238 25.3125 19.9238V10.3613C25.3125 7.36133 22.875 4.83008 19.875 4.83008ZM23.4375 19.7363C23.4375 21.7988 21.75 23.5801 19.6875 23.5801H10.3125C8.25 23.5801 6.5625 21.7988 6.5625 19.7363V10.4551C6.5625 8.39258 8.15625 6.70508 10.3125 6.70508H19.6875C21.75 6.70508 23.4375 8.48633 23.4375 10.5488V19.7363Z" fill="white"/>
<path d="M15.0008 9.89237C12.0945 9.79862 9.65701 12.1424 9.56326 15.0486C9.46951 17.9549 11.8133 20.3924 14.7195 20.4861C17.6258 20.5799 20.0633 18.2361 20.157 15.3299V15.2361C20.2508 12.2361 17.907 9.89237 15.0008 9.89237ZM15.0008 18.5174C13.1258 18.5174 11.532 17.0174 11.532 15.1424C11.532 13.2674 13.032 11.6736 14.907 11.6736C16.782 11.6736 18.3758 13.1736 18.3758 15.0486V15.1424C18.3758 17.0174 16.8758 18.5174 15.0008 18.5174Z" fill="white"/>
<path d="M20.4375 10.7363C21.0588 10.7363 21.5625 10.1907 21.5625 9.51758C21.5625 8.84448 21.0588 8.29883 20.4375 8.29883C19.8162 8.29883 19.3125 8.84448 19.3125 9.51758C19.3125 10.1907 19.8162 10.7363 20.4375 10.7363Z" fill="white"/>
</g>
<defs>
<linearGradient id="paint0_linear_1500_1024" x1="5.44078" y1="31.6996" x2="24.5592" y2="-1.41442" gradientUnits="userSpaceOnUse">
<stop stop-color="#FEC053"/>
<stop offset="0.327" stop-color="#F2203E"/>
<stop offset="0.648" stop-color="#B729A8"/>
<stop offset="1" stop-color="#5342D6"/>
</linearGradient>
<clipPath id="clip0_1500_1024">
<rect width="30" height="30" fill="white" transform="translate(0 0.142578)"/>
</clipPath>
</defs>
</svg>
