<svg width="30" height="31" viewBox="0 0 30 31" fill="none" xmlns="http://www.w3.org/2000/svg">
<g clip-path="url(#clip0_1500_1033)">
<path d="M30 28.2676C30 29.3026 29.16 30.1426 28.125 30.1426H1.875C0.84 30.1426 0 29.3026 0 28.2676V2.01758C0 0.982578 0.84 0.142578 1.875 0.142578H28.125C29.16 0.142578 30 0.982578 30 2.01758V28.2676Z" fill="#007BB5"/>
<path d="M10.3125 10.4551H6.5625V23.5801H10.3125V10.4551Z" fill="white"/>
<path d="M19.2178 10.4551C16.6013 10.4551 16.1512 11.4095 15.9375 12.3301V10.4551H12.1875V23.5801H15.9375V16.0801C15.9375 14.8641 16.5966 14.2051 17.8125 14.2051C18.9994 14.2051 19.6875 14.8501 19.6875 16.0801V23.5801H23.4375V17.0176C23.4375 13.2676 22.9491 10.4551 19.2178 10.4551Z" fill="white"/>
<path d="M8.4375 9.51758C9.47303 9.51758 10.3125 8.67811 10.3125 7.64258C10.3125 6.60704 9.47303 5.76758 8.4375 5.76758C7.40197 5.76758 6.5625 6.60704 6.5625 7.64258C6.5625 8.67811 7.40197 9.51758 8.4375 9.51758Z" fill="white"/>
</g>
<defs>
<clipPath id="clip0_1500_1033">
<rect width="30" height="30" fill="white" transform="translate(0 0.142578)"/>
</clipPath>
</defs>
</svg>
