<svg width="166" height="110" viewBox="0 0 166 110" fill="none" xmlns="http://www.w3.org/2000/svg">
<path d="M37.4984 33.3072C44.6968 80.2684 -21.8766 75.9976 18.0529 54.374C57.9824 32.7503 170.498 75.3072 120.998 34.3072" stroke="white"/>
<path d="M34.344 39.128C32.688 39.128 30.936 38.336 29.088 36.752C26.928 34.88 24.948 32.036 23.148 28.22C22.932 27.764 22.656 27.212 22.32 26.564C22.008 25.892 21.624 25.124 21.168 24.26H20.556C16.404 32.804 11.616 37.076 6.192 37.076C4.296 37.076 2.796 36.464 1.692 35.24C0.588 34.016 0.036 32.432 0.036 30.488C0.036 28.448 0.636 26.648 1.836 25.088C3.084 23.408 4.728 22.568 6.768 22.568C7.344 22.568 7.884 22.736 8.388 23.072C8.916 23.408 9.18 23.84 9.18 24.368C9.18 24.488 9.144 24.572 9.072 24.62L8.712 23.9C8.496 23.468 7.98 23.252 7.164 23.252C5.412 23.252 3.972 24.152 2.844 25.952C1.86 27.512 1.368 29.216 1.368 31.064C1.368 32.672 1.74 33.968 2.484 34.952C3.324 36.08 4.512 36.644 6.048 36.644C9.024 36.644 11.916 34.64 14.724 30.632C15.492 29.528 16.2 28.436 16.848 27.356C17.52 26.252 18.12 25.16 18.648 24.08C18.288 24.008 17.928 23.924 17.568 23.828C17.232 23.708 16.896 23.588 16.56 23.468C15.288 26.132 13.812 28.556 12.132 30.74C9.732 33.908 7.584 35.492 5.688 35.492C5.448 35.492 5.328 35.408 5.328 35.24C5.328 35.12 5.448 35.036 5.688 34.988C5.952 34.94 6.372 34.844 6.948 34.7C8.652 34.028 10.464 32.384 12.384 29.768C13.08 28.808 13.74 27.788 14.364 26.708C15.012 25.628 15.624 24.488 16.2 23.288C14.496 22.496 13.644 21.632 13.644 20.696C13.644 20.216 13.884 19.784 14.364 19.4C14.868 19.016 15.36 18.824 15.84 18.824C16.44 18.824 17.1 19.076 17.82 19.58L18.576 17.528C18.024 16.76 17.748 15.98 17.748 15.188C17.748 14.252 17.988 13.784 18.468 13.784C18.804 13.784 19.104 14.132 19.368 14.828C19.68 13.7 19.92 12.608 20.088 11.552C20.28 10.472 20.424 9.428 20.52 8.42C18.192 8.516 15.96 8.912 13.824 9.608C12.576 10.016 11.46 10.508 10.476 11.084C9.492 11.636 8.652 12.284 7.956 13.028C6.996 13.988 6.516 15.068 6.516 16.268C6.516 18.26 7.596 19.688 9.756 20.552C9.924 20.6 10.128 20.66 10.368 20.732C10.608 20.804 10.896 20.876 11.232 20.948C11.376 20.972 11.448 21.032 11.448 21.128C11.448 21.224 11.352 21.272 11.16 21.272H11.088C10.344 21.272 9.624 21.104 8.928 20.768C8.232 20.432 7.548 19.988 6.876 19.436C5.484 18.26 4.788 16.928 4.788 15.44C4.788 14.384 5.22 13.412 6.084 12.524C7.572 11.036 9.84 9.86 12.888 8.996C15.312 8.3 17.88 7.904 20.592 7.808V5.36C20.592 5.168 20.664 5.072 20.808 5.072C20.88 5.072 20.916 5.132 20.916 5.252C21.036 5.948 21.072 6.788 21.024 7.772H22.752C23.76 7.772 24.732 7.82 25.668 7.916C26.604 8.012 27.516 8.156 28.404 8.348C29.508 8.588 30.516 8.888 31.428 9.248C32.34 9.608 33.168 10.052 33.912 10.58C35.832 11.924 36.792 13.556 36.792 15.476C36.792 17.348 35.868 19.028 34.02 20.516C32.58 21.668 30.792 22.568 28.656 23.216C27.672 23.528 26.628 23.768 25.524 23.936C24.42 24.104 23.268 24.212 22.068 24.26L26.928 30.848C28.056 32.36 29.076 33.596 29.988 34.556C30.9 35.516 31.668 36.212 32.292 36.644C33.564 37.508 34.632 37.94 35.496 37.94C36.864 37.94 37.548 37.028 37.548 35.204C37.548 33.572 37.032 32.048 36 30.632C35.928 30.512 35.892 30.44 35.892 30.416C35.892 30.344 35.928 30.308 36 30.308C36.12 30.308 36.252 30.392 36.396 30.56C37.572 31.952 38.16 33.452 38.16 35.06C38.16 36.212 37.812 37.172 37.116 37.94C36.42 38.732 35.496 39.128 34.344 39.128ZM21.42 23.396C24.012 23.396 26.352 23.12 28.44 22.568C30.192 22.064 31.632 21.356 32.76 20.444C34.176 19.292 34.884 17.924 34.884 16.34C34.884 14.564 34.056 12.98 32.4 11.588C31.032 10.46 29.376 9.632 27.432 9.104C26.52 8.84 25.584 8.66 24.624 8.564C23.664 8.444 22.692 8.384 21.708 8.384H20.988C20.94 9.344 20.82 10.352 20.628 11.408C20.436 12.44 20.184 13.52 19.872 14.648C20.28 14.384 20.604 14.252 20.844 14.252C21.084 14.252 21.204 14.384 21.204 14.648C21.204 15.128 20.952 15.68 20.448 16.304C20.208 16.616 19.956 16.88 19.692 17.096C19.452 17.312 19.212 17.492 18.972 17.636C18.852 17.996 18.72 18.356 18.576 18.716C18.456 19.076 18.312 19.448 18.144 19.832C18.408 20.048 18.684 20.288 18.972 20.552C19.26 20.816 19.548 21.116 19.836 21.452C20.604 19.556 21.252 17.564 21.78 15.476C21.852 15.14 21.936 14.72 22.032 14.216C22.152 13.688 22.296 13.088 22.464 12.416C22.68 11.672 23.172 11.3 23.94 11.3C24.396 11.3 24.624 11.48 24.624 11.84C24.624 11.96 24.6 12.164 24.552 12.452C24.504 12.74 24.432 13.112 24.336 13.568C23.976 15.128 23.52 16.7 22.968 18.284C22.44 19.844 21.828 21.428 21.132 23.036L21.42 23.396ZM16.56 22.568C16.752 22.16 16.932 21.74 17.1 21.308C17.292 20.876 17.472 20.444 17.64 20.012C16.944 19.532 16.344 19.292 15.84 19.292C15.144 19.292 14.796 19.64 14.796 20.336C14.796 21.224 15.384 21.968 16.56 22.568ZM19.008 23.288C19.128 23.072 19.236 22.856 19.332 22.64C19.428 22.424 19.524 22.208 19.62 21.992C19.092 21.32 18.54 20.756 17.964 20.3C17.796 20.708 17.628 21.116 17.46 21.524C17.292 21.932 17.112 22.34 16.92 22.748C17.544 23.012 18.24 23.192 19.008 23.288ZM37.1405 31.892C36.2045 31.892 35.7365 31.292 35.7365 30.092C35.7365 28.628 36.2885 27.128 37.3925 25.592C37.0085 24.656 36.8165 23.66 36.8165 22.604C36.8165 21.572 37.0205 20.672 37.4285 19.904C38.1965 18.392 39.1805 17.636 40.3805 17.636C41.8685 17.636 42.7325 18.908 42.9725 21.452C43.5725 21.476 44.0165 21.668 44.3045 22.028C44.6165 22.364 44.7725 22.844 44.7725 23.468C44.7725 23.948 44.7125 24.296 44.5925 24.512C44.4965 24.704 44.4005 24.8 44.3045 24.8C44.2085 24.8 44.1605 24.752 44.1605 24.656C44.1605 24.536 44.1725 24.392 44.1965 24.224C44.2445 24.056 44.2685 23.852 44.2685 23.612C44.2685 23.276 44.1485 23.024 43.9085 22.856C43.6685 22.664 43.3685 22.568 43.0085 22.568C42.7205 25.496 42.0125 27.74 40.8845 29.3H42.0005C41.6885 29.492 41.4125 29.588 41.1725 29.588C41.1245 29.588 41.0525 29.576 40.9565 29.552C40.8845 29.528 40.8245 29.516 40.7765 29.516C40.8245 29.54 40.4045 29.936 39.5165 30.704C38.5805 31.496 37.7885 31.892 37.1405 31.892ZM37.7885 25.196C39.2525 23.228 40.7885 22.004 42.3965 21.524C41.9165 19.46 41.2565 18.428 40.4165 18.428C39.6485 18.428 38.9405 19.184 38.2925 20.696C37.8845 21.704 37.6805 22.772 37.6805 23.9C37.6805 24.356 37.7165 24.788 37.7885 25.196ZM39.7325 29.12C40.3085 28.592 40.8965 27.56 41.4965 26.024C42.1205 24.44 42.4325 23.276 42.4325 22.532C41.9045 22.604 41.0765 23.096 39.9485 24.008C38.8445 24.896 38.1605 25.604 37.8965 26.132C38.4005 27.956 39.0125 28.952 39.7325 29.12ZM37.2485 30.812C37.9205 30.812 38.7005 30.308 39.5885 29.3C38.7965 29.204 38.1485 28.256 37.6445 26.456C36.8525 27.776 36.4565 28.808 36.4565 29.552C36.4565 30.392 36.7205 30.812 37.2485 30.812ZM48.096 31.64C46.896 31.64 46.296 31.028 46.296 29.804C46.296 28.484 46.908 26.168 48.132 22.856C47.532 23.672 47.112 24.08 46.872 24.08C46.8 24.08 46.764 24.044 46.764 23.972C46.764 23.948 47.076 23.528 47.7 22.712C48.012 22.304 48.252 21.992 48.42 21.776C48.612 21.536 48.72 21.38 48.744 21.308C48.864 20.972 49.032 20.54 49.248 20.012C49.464 19.484 49.716 18.884 50.004 18.212C50.532 17.012 51.072 15.812 51.624 14.612C52.176 13.388 52.752 12.164 53.352 10.94C53.544 10.532 53.784 10.04 54.072 9.464C54.384 8.888 54.744 8.228 55.152 7.484C55.416 7.076 55.908 6.872 56.628 6.872C57.06 6.872 57.276 6.98 57.276 7.196C57.276 7.268 57.264 7.328 57.24 7.376L55.296 11.696L54.504 13.424C54.336 13.52 54.12 13.7 53.856 13.964C53.856 13.964 53.724 14.216 53.46 14.72C53.22 15.224 52.836 15.968 52.308 16.952C48.924 23.528 47.232 27.824 47.232 29.84C47.232 30.632 47.496 31.028 48.024 31.028C48.624 31.028 49.332 30.692 50.148 30.02C50.988 29.324 51.384 28.976 51.336 28.976C51.432 28.976 51.48 29.024 51.48 29.12C51.48 29.216 51.432 29.312 51.336 29.408C50.28 30.896 49.2 31.64 48.096 31.64ZM58.1431 32.144C57.4951 32.144 56.9911 31.808 56.6311 31.136C56.3431 30.584 56.1991 29.948 56.1991 29.228C56.1991 28.868 56.2231 28.472 56.2711 28.04C56.3431 27.584 56.4391 27.092 56.5591 26.564C55.0471 29.924 53.4871 31.604 51.8791 31.604C50.8951 31.604 50.4031 30.968 50.4031 29.696C50.4031 27.656 51.3871 25.544 53.3551 23.36C55.3471 21.128 57.3271 20.012 59.2951 20.012C60.2311 20.012 60.6991 20.42 60.6991 21.236C60.6991 22.244 60.0271 23.252 58.6831 24.26C57.9871 25.988 57.6391 27.764 57.6391 29.588C57.6391 30.956 57.9391 31.64 58.5391 31.64C59.3791 31.64 60.8191 30.128 62.8591 27.104C63.0031 26.912 63.1111 26.816 63.1831 26.816C63.2551 26.816 63.2911 26.864 63.2911 26.96C63.2911 27.08 63.2431 27.2 63.1471 27.32C60.9871 30.536 59.3191 32.144 58.1431 32.144ZM52.0231 30.488C53.5351 30.488 54.9991 28.808 56.4151 25.448C56.2231 25.496 56.0431 25.544 55.8751 25.592C55.7311 25.616 55.5991 25.628 55.4791 25.628C55.3831 25.628 55.3351 25.592 55.3351 25.52C55.3351 25.4 55.5031 25.28 55.8391 25.16L56.9551 24.512C57.0031 24.104 57.2551 23.576 57.7111 22.928C58.1671 22.256 58.5991 21.92 59.0071 21.92C59.1511 21.92 59.2231 22.028 59.2231 22.244C59.2231 22.412 59.1631 22.676 59.0431 23.036C59.4271 22.508 59.6191 21.992 59.6191 21.488C59.6191 20.936 59.3671 20.66 58.8631 20.66C57.6631 20.66 56.0911 21.848 54.1471 24.224C52.2031 26.552 51.2311 28.364 51.2311 29.66C51.2311 30.212 51.4951 30.488 52.0231 30.488ZM62.7548 32.396C62.5387 32.396 62.4307 32.24 62.4307 31.928V31.856C62.5267 31.52 62.6227 31.1 62.7188 30.596C62.8388 30.092 62.9708 29.504 63.1148 28.832C63.2588 28.16 63.4388 27.32 63.6548 26.312C63.8708 25.28 64.1348 24.092 64.4468 22.748L64.0148 21.704C63.8948 21.392 63.7988 21.164 63.7268 21.02C63.6788 20.876 63.6548 20.804 63.6548 20.804C63.6548 20.636 63.8588 20.48 64.2668 20.336C65.4668 19.88 66.2348 19.652 66.5708 19.652C66.9308 19.652 67.1108 19.76 67.1108 19.976C67.0868 19.904 66.4748 21.44 65.2748 24.584V24.908C65.2748 25.58 65.1668 25.916 64.9508 25.916C64.9268 25.916 64.8908 25.88 64.8428 25.808C64.6508 26.408 64.4588 26.984 64.2668 27.536C64.0988 28.064 63.9428 28.592 63.7988 29.12C64.3268 28.256 64.8668 27.428 65.4188 26.636C65.9948 25.844 66.5828 25.1 67.1828 24.404C68.9828 22.316 70.4708 21.272 71.6468 21.272C72.1988 21.272 72.4748 21.488 72.4748 21.92C72.4748 22.064 72.4388 22.244 72.3668 22.46C72.1748 23.276 71.9108 24.308 71.5748 25.556C71.2388 26.78 70.8428 28.208 70.3868 29.84C71.7788 28.808 72.8588 27.704 73.6268 26.528C73.7468 26.384 73.8308 26.312 73.8788 26.312C73.9508 26.312 73.9868 26.36 73.9868 26.456C73.9868 26.504 73.9508 26.588 73.8788 26.708C72.8228 28.58 71.5388 30.068 70.0268 31.172C69.9308 31.316 69.7748 31.388 69.5588 31.388C69.3908 31.388 69.3068 31.292 69.3068 31.1C69.3068 31.052 69.3428 30.836 69.4148 30.452C69.4868 30.044 69.5828 29.48 69.7028 28.76C69.8228 28.232 69.9308 27.716 70.0268 27.212C70.1228 26.708 70.2188 26.192 70.3148 25.664C70.4828 24.488 70.5908 23.456 70.6388 22.568C70.1108 22.808 69.5348 23.204 68.9108 23.756C68.3108 24.284 67.6388 24.956 66.8948 25.772C66.2228 26.516 65.6348 27.224 65.1308 27.896C64.6508 28.544 64.2548 29.156 63.9428 29.732C63.6068 30.38 63.3548 31.076 63.1868 31.82C63.0908 32.204 62.9468 32.396 62.7548 32.396ZM64.6628 21.776L64.9868 20.588C64.8668 20.684 64.6388 20.804 64.3028 20.948L64.6628 21.776ZM82.7896 32.252C81.3976 32.252 80.7016 31.244 80.7016 29.228C80.7016 28.244 80.9176 26.78 81.3496 24.836C80.3416 26.804 79.5376 28.184 78.9376 28.976C77.6656 30.752 76.4776 31.64 75.3736 31.64C74.2456 31.64 73.6816 30.896 73.6816 29.408C73.6816 27.128 74.8936 24.704 77.3176 22.136C79.7416 19.568 82.1176 18.152 84.4456 17.888C84.9736 16.616 85.4896 15.404 85.9936 14.252C86.4976 13.1 86.9776 12.008 87.4336 10.976C87.6256 10.568 87.8416 10.1 88.0816 9.572C88.3456 9.044 88.6336 8.456 88.9456 7.808C89.3536 7.256 90.0016 6.98 90.8896 6.98C91.2256 6.98 91.3936 7.064 91.3936 7.232C91.3936 7.232 91.3696 7.28 91.3216 7.376C91.1296 7.76 90.8656 8.252 90.5296 8.852C90.2176 9.452 89.8576 10.136 89.4496 10.904C88.8016 12.152 88.1656 13.388 87.5416 14.612C86.9416 15.812 86.3656 16.976 85.8136 18.104C86.1016 18.176 86.2456 18.392 86.2456 18.752C86.2456 19.232 85.9456 19.952 85.3456 20.912C84.7696 21.872 84.2896 22.496 83.9056 22.784C83.6656 23.24 83.4496 23.768 83.2576 24.368C83.0656 24.968 82.8736 25.616 82.6816 26.312C82.5136 27.008 82.3816 27.656 82.2856 28.256C82.2136 28.856 82.1776 29.396 82.1776 29.876C82.1776 31.052 82.4896 31.64 83.1136 31.64C83.8336 31.64 84.7096 30.992 85.7416 29.696C86.0776 29.288 86.7256 28.316 87.6856 26.78C87.8056 26.636 87.8896 26.564 87.9376 26.564C88.0096 26.564 88.0456 26.6 88.0456 26.672C88.0456 26.672 88.0216 26.744 87.9736 26.888C86.1256 30.464 84.3976 32.252 82.7896 32.252ZM75.5536 30.308C77.3056 30.308 79.0216 28.352 80.7016 24.44C80.2456 24.584 79.8736 24.656 79.5856 24.656C79.4896 24.656 79.4416 24.608 79.4416 24.512C79.4416 24.368 79.6096 24.248 79.9456 24.152C80.2816 24.032 80.6776 23.816 81.1336 23.504C81.2296 23.264 81.3256 23 81.4216 22.712C81.5416 22.4 81.6496 22.064 81.7456 21.704C81.8176 21.512 81.9016 21.416 81.9976 21.416C82.1656 21.416 82.2496 21.524 82.2496 21.74C82.2496 21.956 82.1416 22.352 81.9256 22.928L82.5736 22.46L84.0856 18.716C82.3096 19.1 80.2936 20.408 78.0376 22.64C75.7336 24.968 74.5816 26.996 74.5816 28.724C74.5816 29.78 74.9056 30.308 75.5536 30.308ZM100.119 35.024C99.8794 35.024 99.6394 35.012 99.3994 34.988C99.1834 34.988 98.9554 34.976 98.7154 34.952C97.7074 34.832 96.7714 34.412 95.9074 33.692C94.9234 32.9 94.4314 32.024 94.4314 31.064C94.4314 30.128 94.8874 29.42 95.7994 28.94C96.5434 28.532 97.4194 28.328 98.4274 28.328C99.7954 28.328 101.679 28.82 104.079 29.804C105.735 27.716 107.211 25.124 108.507 22.028C108.171 20.876 108.003 20.024 108.003 19.472C108.003 18.608 108.171 18.176 108.507 18.176C108.891 18.176 109.227 18.56 109.515 19.328C110.379 17.624 111.243 14.696 112.107 10.544C106.827 10.568 102.831 12.008 100.119 14.864C99.2074 15.848 98.7514 16.892 98.7514 17.996C98.7514 19.964 99.8194 21.404 101.955 22.316C102.147 22.412 102.375 22.496 102.639 22.568C102.903 22.64 103.227 22.724 103.611 22.82C103.731 22.868 103.791 22.916 103.791 22.964C103.791 23.084 103.707 23.144 103.539 23.144L103.467 23.108C102.003 23.012 100.659 22.436 99.4354 21.38C98.1154 20.228 97.4554 18.932 97.4554 17.492C97.4554 16.388 97.8994 15.38 98.7874 14.468C101.715 11.396 106.191 9.896 112.215 9.968C112.359 8.912 112.575 7.832 112.863 6.728C112.959 6.752 113.007 7.028 113.007 7.556C113.007 7.868 112.983 8.228 112.935 8.636C112.887 9.044 112.815 9.488 112.719 9.968C114.327 10.016 115.827 10.196 117.219 10.508C118.971 8.18 120.795 7.016 122.691 7.016C123.507 7.016 124.251 7.232 124.923 7.664C125.595 8.072 126.063 8.66 126.327 9.428C126.375 9.596 126.411 9.752 126.435 9.896C126.459 10.016 126.471 10.124 126.471 10.22C126.471 10.316 126.435 10.364 126.363 10.364C126.243 10.364 126.147 10.208 126.075 9.896C125.931 9.344 125.511 8.888 124.815 8.528C124.191 8.192 123.579 8.024 122.979 8.024C121.419 8.024 119.967 8.912 118.623 10.688C121.479 11.144 123.915 12.272 125.931 14.072C128.163 16.04 129.279 18.416 129.279 21.2C129.279 22.976 128.895 24.704 128.127 26.384C127.023 28.736 125.391 30.548 123.231 31.82C121.095 33.068 118.695 33.692 116.031 33.692C113.343 33.692 110.451 33.056 107.355 31.784C105.675 33.944 103.263 35.024 100.119 35.024ZM106.203 30.668C106.635 30.212 107.115 29.576 107.643 28.76C108.171 27.944 108.699 26.936 109.227 25.736L112.755 17.96C113.547 16.208 114.291 14.756 114.987 13.604C115.683 12.428 116.307 11.54 116.859 10.94C116.187 10.82 115.491 10.724 114.771 10.652C114.075 10.58 113.355 10.544 112.611 10.544C112.371 11.72 112.035 13.016 111.603 14.432C111.195 15.824 110.703 17.36 110.127 19.04C110.463 18.848 110.715 18.752 110.883 18.752C111.075 18.752 111.171 18.872 111.171 19.112C111.171 19.784 110.391 20.84 108.831 22.28C108.207 23.744 107.511 25.124 106.743 26.42C105.999 27.692 105.207 28.856 104.367 29.912L106.203 30.668ZM115.671 33.08C118.983 33.08 121.719 32 123.879 29.84C126.039 27.68 127.119 24.932 127.119 21.596C127.119 19.1 126.267 16.856 124.563 14.864C122.883 12.848 120.795 11.624 118.299 11.192C117.915 11.768 117.483 12.536 117.003 13.496C116.523 14.432 115.971 15.572 115.347 16.916C114.531 18.86 113.199 21.74 111.351 25.556C110.055 28.124 108.855 30.044 107.751 31.316C110.559 32.492 113.199 33.08 115.671 33.08ZM99.4354 34.16C100.635 34.16 101.835 33.896 103.035 33.368C104.403 32.792 105.363 32.06 105.915 31.172C105.315 30.836 104.703 30.548 104.079 30.308C102.615 32.108 101.343 33.008 100.263 33.008C99.7594 33.008 99.5074 32.864 99.5074 32.576C99.5074 32.456 99.5794 32.396 99.7234 32.396C99.7714 32.396 99.8674 32.408 100.011 32.432C100.155 32.48 100.263 32.504 100.335 32.504C101.295 32.504 102.447 31.724 103.791 30.164C101.535 29.18 99.6634 28.688 98.1754 28.688C97.3594 28.688 96.6754 28.844 96.1234 29.156C95.4034 29.516 95.0434 30.068 95.0434 30.812C95.0434 31.772 95.5474 32.588 96.5554 33.26C97.4434 33.86 98.4034 34.16 99.4354 34.16ZM131.922 31.892C130.986 31.892 130.518 31.292 130.518 30.092C130.518 28.628 131.07 27.128 132.174 25.592C131.79 24.656 131.598 23.66 131.598 22.604C131.598 21.572 131.802 20.672 132.21 19.904C132.978 18.392 133.962 17.636 135.162 17.636C136.65 17.636 137.514 18.908 137.754 21.452C138.354 21.476 138.798 21.668 139.086 22.028C139.398 22.364 139.554 22.844 139.554 23.468C139.554 23.948 139.494 24.296 139.374 24.512C139.278 24.704 139.182 24.8 139.086 24.8C138.99 24.8 138.942 24.752 138.942 24.656C138.942 24.536 138.954 24.392 138.978 24.224C139.026 24.056 139.05 23.852 139.05 23.612C139.05 23.276 138.93 23.024 138.69 22.856C138.45 22.664 138.15 22.568 137.79 22.568C137.502 25.496 136.794 27.74 135.666 29.3H136.782C136.47 29.492 136.194 29.588 135.954 29.588C135.906 29.588 135.834 29.576 135.738 29.552C135.666 29.528 135.606 29.516 135.558 29.516C135.606 29.54 135.186 29.936 134.298 30.704C133.362 31.496 132.57 31.892 131.922 31.892ZM132.57 25.196C134.034 23.228 135.57 22.004 137.178 21.524C136.698 19.46 136.038 18.428 135.198 18.428C134.43 18.428 133.722 19.184 133.074 20.696C132.666 21.704 132.462 22.772 132.462 23.9C132.462 24.356 132.498 24.788 132.57 25.196ZM134.514 29.12C135.09 28.592 135.678 27.56 136.278 26.024C136.902 24.44 137.214 23.276 137.214 22.532C136.686 22.604 135.858 23.096 134.73 24.008C133.626 24.896 132.942 25.604 132.678 26.132C133.182 27.956 133.794 28.952 134.514 29.12ZM132.03 30.812C132.702 30.812 133.482 30.308 134.37 29.3C133.578 29.204 132.93 28.256 132.426 26.456C131.634 27.776 131.238 28.808 131.238 29.552C131.238 30.392 131.502 30.812 132.03 30.812ZM148.637 32.252C147.245 32.252 146.549 31.244 146.549 29.228C146.549 28.244 146.765 26.78 147.197 24.836C146.189 26.804 145.385 28.184 144.785 28.976C143.513 30.752 142.325 31.64 141.221 31.64C140.093 31.64 139.529 30.896 139.529 29.408C139.529 27.128 140.741 24.704 143.165 22.136C145.589 19.568 147.965 18.152 150.293 17.888C150.821 16.616 151.337 15.404 151.841 14.252C152.345 13.1 152.825 12.008 153.281 10.976C153.473 10.568 153.689 10.1 153.929 9.572C154.193 9.044 154.481 8.456 154.793 7.808C155.201 7.256 155.849 6.98 156.737 6.98C157.073 6.98 157.241 7.064 157.241 7.232C157.241 7.232 157.217 7.28 157.169 7.376C156.977 7.76 156.713 8.252 156.377 8.852C156.065 9.452 155.705 10.136 155.297 10.904C154.649 12.152 154.013 13.388 153.389 14.612C152.789 15.812 152.213 16.976 151.661 18.104C151.949 18.176 152.093 18.392 152.093 18.752C152.093 19.232 151.793 19.952 151.193 20.912C150.617 21.872 150.137 22.496 149.753 22.784C149.513 23.24 149.297 23.768 149.105 24.368C148.913 24.968 148.721 25.616 148.529 26.312C148.361 27.008 148.229 27.656 148.133 28.256C148.061 28.856 148.025 29.396 148.025 29.876C148.025 31.052 148.337 31.64 148.961 31.64C149.681 31.64 150.557 30.992 151.589 29.696C151.925 29.288 152.573 28.316 153.533 26.78C153.653 26.636 153.737 26.564 153.785 26.564C153.857 26.564 153.893 26.6 153.893 26.672C153.893 26.672 153.869 26.744 153.821 26.888C151.973 30.464 150.245 32.252 148.637 32.252ZM141.401 30.308C143.153 30.308 144.869 28.352 146.549 24.44C146.093 24.584 145.721 24.656 145.433 24.656C145.337 24.656 145.289 24.608 145.289 24.512C145.289 24.368 145.457 24.248 145.793 24.152C146.129 24.032 146.525 23.816 146.981 23.504C147.077 23.264 147.173 23 147.269 22.712C147.389 22.4 147.497 22.064 147.593 21.704C147.665 21.512 147.749 21.416 147.845 21.416C148.013 21.416 148.097 21.524 148.097 21.74C148.097 21.956 147.989 22.352 147.773 22.928L148.421 22.46L149.933 18.716C148.157 19.1 146.141 20.408 143.885 22.64C141.581 24.968 140.429 26.996 140.429 28.724C140.429 29.78 140.753 30.308 141.401 30.308ZM160.413 32.144C159.765 32.144 159.261 31.808 158.901 31.136C158.613 30.584 158.469 29.948 158.469 29.228C158.469 28.868 158.493 28.472 158.541 28.04C158.613 27.584 158.709 27.092 158.829 26.564C157.317 29.924 155.757 31.604 154.149 31.604C153.165 31.604 152.673 30.968 152.673 29.696C152.673 27.656 153.657 25.544 155.625 23.36C157.617 21.128 159.597 20.012 161.565 20.012C162.501 20.012 162.969 20.42 162.969 21.236C162.969 22.244 162.297 23.252 160.953 24.26C160.257 25.988 159.909 27.764 159.909 29.588C159.909 30.956 160.209 31.64 160.809 31.64C161.649 31.64 163.089 30.128 165.129 27.104C165.273 26.912 165.381 26.816 165.453 26.816C165.525 26.816 165.561 26.864 165.561 26.96C165.561 27.08 165.513 27.2 165.417 27.32C163.257 30.536 161.589 32.144 160.413 32.144ZM154.293 30.488C155.805 30.488 157.269 28.808 158.685 25.448C158.493 25.496 158.313 25.544 158.145 25.592C158.001 25.616 157.869 25.628 157.749 25.628C157.653 25.628 157.605 25.592 157.605 25.52C157.605 25.4 157.773 25.28 158.109 25.16L159.225 24.512C159.273 24.104 159.525 23.576 159.981 22.928C160.437 22.256 160.869 21.92 161.277 21.92C161.421 21.92 161.493 22.028 161.493 22.244C161.493 22.412 161.433 22.676 161.313 23.036C161.697 22.508 161.889 21.992 161.889 21.488C161.889 20.936 161.637 20.66 161.133 20.66C159.933 20.66 158.361 21.848 156.417 24.224C154.473 26.552 153.501 28.364 153.501 29.66C153.501 30.212 153.765 30.488 154.293 30.488Z" fill="white"/>
</svg>
