<svg width="30" height="31" viewBox="0 0 30 31" fill="none" xmlns="http://www.w3.org/2000/svg">
<path fill-rule="evenodd" clip-rule="evenodd" d="M3.33333 30.1426H26.6667C28.5076 30.1426 30 28.6502 30 26.8092V3.47591C30 1.63496 28.5076 0.142578 26.6667 0.142578H3.33333C1.49238 0.142578 0 1.63496 0 3.47591V26.8092C0 28.6502 1.49238 30.1426 3.33333 30.1426Z" fill="#FF810F"/>
<path fill-rule="evenodd" clip-rule="evenodd" d="M17.5365 22.4727L9.5734 22.4764L9.57271 20.79L17.5355 20.786L17.5365 22.4727ZM22.9173 12.9221L21.5551 5.14258L19.8793 5.43092L21.2413 13.2104L22.9173 12.9221ZM17.728 18.6237L9.79886 17.8993L9.64274 19.5789L17.572 20.3026L17.728 18.6237ZM18.2511 16.4231L10.5615 14.3734L10.1197 16.0018L17.8098 18.0517L18.2511 16.4231ZM19.255 14.4941L12.3963 10.4828L11.5318 11.9349L18.3909 15.9465L19.255 14.4941ZM20.9368 13.3129L19.5317 14.2627L15.0451 7.73918L16.4503 6.78912L20.9368 13.3129ZM18.8888 16.9253H20.2423V25.1426H7.08398V16.9253H8.44434V23.8194H18.8888V16.9253Z" fill="white"/>
</svg>
