<svg width="30" height="31" viewBox="0 0 30 31" fill="none" xmlns="http://www.w3.org/2000/svg">
<g clip-path="url(#clip0_1500_1029)">
<path d="M26.25 30.1426H3.75C1.68 30.1426 0 28.4626 0 26.3926V3.89258C0 1.82258 1.68 0.142578 3.75 0.142578H26.25C28.32 0.142578 30 1.82258 30 3.89258V26.3926C30 28.4626 28.32 30.1426 26.25 30.1426Z" fill="#1DA1F2"/>
<path d="M11.5125 22.7654C18.585 22.7654 22.455 16.9004 22.455 11.8229C22.455 11.6579 22.455 11.4929 22.4475 11.3279C23.1975 10.7879 23.85 10.1054 24.3675 9.33289C23.6775 9.64039 22.935 9.84289 22.155 9.94039C22.95 9.46789 23.5575 8.71039 23.85 7.81039C23.1075 8.25289 22.2825 8.56789 21.405 8.74039C20.7 7.99039 19.7025 7.52539 18.6 7.52539C16.4775 7.52539 14.7525 9.25039 14.7525 11.3729C14.7525 11.6729 14.79 11.9654 14.85 12.2504C11.655 12.0929 8.82 10.5554 6.9225 8.23039C6.5925 8.80039 6.405 9.46039 6.405 10.1654C6.405 11.5004 7.0875 12.6779 8.115 13.3679C7.485 13.3454 6.8925 13.1729 6.375 12.8879V12.9404C6.375 14.8004 7.7025 16.3604 9.4575 16.7129C9.135 16.8029 8.7975 16.8479 8.445 16.8479C8.1975 16.8479 7.9575 16.8254 7.725 16.7804C8.2125 18.3104 9.6375 19.4204 11.3175 19.4504C9.9975 20.4854 8.34 21.1004 6.54 21.1004C6.2325 21.1004 5.925 21.0854 5.625 21.0479C7.32 22.1279 9.345 22.7654 11.5125 22.7654Z" fill="white"/>
</g>
<defs>
<clipPath id="clip0_1500_1029">
<rect width="30" height="30" fill="white" transform="translate(0 0.142578)"/>
</clipPath>
</defs>
</svg>
